<?xml version="1.0" standalone="no"?><!-- Generator: Gravit.io --><svg xmlns="http://www.w3.org/2000/svg" xmlns:xlink="http://www.w3.org/1999/xlink" style="isolation:isolate" viewBox="0 0 444 237" width="444" height="237"><defs><clipPath id="_clipPath_VGRJociOzwkdoL80ULMmUcZyOxBB2WRM"><rect width="444" height="237"/></clipPath></defs><g clip-path="url(#_clipPath_VGRJociOzwkdoL80ULMmUcZyOxBB2WRM)"><g><g><path d=" M 73.774 9.095 C 75.695 9.755 77.361 10.626 78.772 11.707 L 76.882 14.814 C 75.77 13.944 74.397 13.245 72.762 12.72 C 71.126 12.194 69.541 11.932 68.01 11.932 C 64.258 11.932 61.233 13.073 58.937 15.354 C 56.64 17.635 55.492 20.638 55.492 24.361 C 55.492 28.082 56.64 31.085 58.937 33.366 C 61.233 35.647 64.258 36.788 68.01 36.788 C 69.571 36.788 71.154 36.533 72.762 36.022 C 74.367 35.513 75.741 34.822 76.882 33.952 L 78.772 37.103 C 77.361 38.154 75.704 39.003 73.796 39.647 C 71.89 40.293 70.007 40.616 68.145 40.616 C 63.072 40.616 58.967 39.122 55.83 36.135 C 52.693 33.148 51.125 29.224 51.125 24.361 C 51.125 19.497 52.693 15.573 55.83 12.586 C 58.967 9.599 63.057 8.104 68.1 8.104 C 69.961 8.104 71.853 8.435 73.774 9.095 Z " fill="rgb(255,255,255)"/><path d=" M 114.027 0.405 L 106.507 6.754 L 105.022 6.754 L 109.074 0 L 114.027 0 L 114.027 0.405 Z  M 118.845 12.203 L 102.23 12.203 L 102.23 22.874 L 117.63 22.874 L 117.63 26.432 L 102.23 26.432 L 102.23 36.518 L 118.845 36.518 L 118.845 40.12 L 97.907 40.12 L 97.907 8.6 L 118.845 8.6 L 118.845 12.203 Z " fill="rgb(255,255,255)"/><path d=" M 143.474 36.518 L 157.343 36.518 L 157.343 40.12 L 139.151 40.12 L 139.151 8.6 L 143.474 8.6 L 143.474 36.518 Z " fill="rgb(255,255,255)"/><path d=" M 199.217 28.503 C 199.217 32.135 198.069 35.062 195.772 37.284 C 193.476 39.505 190.467 40.616 186.744 40.616 C 183.022 40.616 180.012 39.505 177.716 37.284 C 175.42 35.062 174.271 32.135 174.271 28.503 L 174.271 8.6 L 178.594 8.6 L 178.594 28.503 C 178.594 30.995 179.337 32.998 180.823 34.514 C 182.309 36.03 184.282 36.788 186.744 36.788 C 189.206 36.788 191.179 36.03 192.665 34.514 C 194.152 32.998 194.894 30.995 194.894 28.503 L 194.894 8.6 L 199.217 8.6 L 199.217 28.503 Z " fill="rgb(255,255,255)"/><path d=" M 225.287 36.518 L 239.156 36.518 L 239.156 40.12 L 220.964 40.12 L 220.964 8.6 L 225.287 8.6 L 225.287 36.518 Z " fill="rgb(255,255,255)"/><path d=" M 262.883 27.963 L 274.41 27.963 L 268.647 13.013 L 262.883 27.963 Z  M 283.461 40.121 L 278.958 40.121 L 275.626 31.475 L 261.667 31.475 L 258.381 40.121 L 253.878 40.121 L 266.305 8.601 L 271.033 8.601 L 283.461 40.121 Z " fill="rgb(255,255,255)"/><path d=" M 329.747 12.203 L 329.747 36.518 L 335.421 36.518 C 339.053 36.518 341.98 35.408 344.201 33.186 C 346.423 30.965 347.533 28.023 347.533 24.361 C 347.533 20.698 346.423 17.756 344.201 15.535 C 341.98 13.314 339.053 12.203 335.421 12.203 L 329.747 12.203 Z  M 335.601 8.601 C 340.494 8.601 344.434 10.049 347.421 12.946 C 350.408 15.843 351.901 19.648 351.901 24.361 C 351.901 29.074 350.408 32.879 347.421 35.776 C 344.434 38.672 340.494 40.121 335.601 40.121 L 325.424 40.121 L 325.424 8.601 L 335.601 8.601 Z " fill="rgb(255,255,255)"/><path d=" M 392.875 12.203 L 376.259 12.203 L 376.259 22.875 L 391.659 22.875 L 391.659 26.432 L 376.259 26.432 L 376.259 36.518 L 392.875 36.518 L 392.875 40.121 L 371.937 40.121 L 371.937 8.601 L 392.875 8.601 L 392.875 12.203 Z " fill="rgb(255,255,255)"/></g><g><path d=" M 36.04 58.393 C 15.553 58.393 0.719 73.228 0.719 93.714 L 0.719 197.323 C 0.719 217.809 15.553 232.644 36.04 232.644 C 56.526 232.644 71.361 217.809 71.361 197.323 L 71.361 93.714 C 71.361 73.228 56.526 58.393 36.04 58.393 Z " fill-rule="evenodd" fill="rgb(255,255,255)"/><path d=" M 172.97 237 C 140.731 236.998 111.284 219.347 96.12 190.935 C 85.173 170.427 82.867 146.885 89.627 124.646 C 96.388 102.405 111.407 84.128 131.916 73.181 C 144.491 66.469 158.621 62.921 172.777 62.921 C 186.247 62.921 199.728 66.106 211.82 72.139 L 211.818 72.144 L 212.552 72.551 C 216.363 74.443 219.434 77.426 221.436 81.177 C 223.993 85.966 224.532 91.467 222.953 96.665 C 221.374 101.864 217.866 106.134 213.078 108.69 C 210.148 110.253 206.854 111.08 203.551 111.08 C 200.524 111.08 197.474 110.387 194.732 109.078 C 194.647 109.04 194.585 109.009 194.522 108.975 C 194.366 108.891 194.201 108.815 194.036 108.739 L 193.787 108.622 C 187.315 105.348 180.054 103.614 172.803 103.614 C 165.269 103.614 157.754 105.499 151.071 109.066 C 140.15 114.896 132.151 124.63 128.548 136.478 C 124.945 148.326 126.171 160.865 131.999 171.784 C 140.077 186.918 155.765 196.319 172.942 196.318 C 180.492 196.318 188.024 194.427 194.724 190.85 C 208.012 183.759 217.043 170.569 218.883 155.566 C 219.555 148.721 223.553 142.729 229.577 139.513 C 232.525 137.94 235.837 137.109 239.157 137.109 C 246.709 137.109 253.606 141.24 257.155 147.892 C 259.445 152.178 260.116 157.162 259.044 161.928 C 255.163 189.51 238.283 213.705 213.875 226.73 C 201.287 233.448 187.144 237 172.977 237 L 172.97 237 Z " fill="rgb(254,254,254)"/><path d=" M 173.131 181.108 C 161.551 181.108 150.976 174.77 145.531 164.569 C 137.416 149.364 143.183 130.391 158.387 122.274 C 162.903 119.865 167.978 118.591 173.062 118.591 C 179.206 118.591 185.17 120.378 190.306 123.758 L 190.378 123.805 L 190.457 123.839 C 194.936 125.79 199.677 126.778 204.55 126.778 C 210.276 126.778 215.989 125.345 221.073 122.634 C 231.359 117.14 238.239 106.912 239.479 95.273 C 240.374 84.595 246.51 75.242 255.895 70.231 C 260.409 67.821 265.484 66.548 270.569 66.548 C 274.957 66.548 279.399 67.499 283.416 69.3 C 289.791 72.157 294.899 76.925 298.189 83.088 C 302.119 90.451 302.945 98.906 300.516 106.894 C 298.086 114.881 292.692 121.444 285.327 125.375 C 284.41 125.864 283.416 126.323 282.287 126.78 C 278.564 128.285 274.643 129.049 270.635 129.049 L 270.634 129.049 C 265.437 129.049 260.266 127.737 255.68 125.255 L 254.969 124.87 L 254.859 124.999 C 249.975 122.573 244.546 121.295 239.104 121.295 C 233.373 121.295 227.655 122.729 222.571 125.443 C 212.553 130.792 205.703 140.736 204.246 152.046 C 203.45 162.89 197.312 172.356 187.822 177.42 C 183.301 179.833 178.221 181.108 173.131 181.108 Z " fill="rgb(254,254,254)"/><path d=" M 358.333 231.644 C 338.446 231.644 324.011 217.21 324.011 197.323 L 324.011 132.745 L 319.836 132.745 C 316.896 132.745 310.5 132.745 305.034 132.32 C 310.954 126.681 315.321 119.593 317.725 111.689 C 321.437 99.489 320.174 86.577 314.171 75.331 C 311.994 71.253 309.281 67.555 306.088 64.31 C 311.168 64.101 317.208 64.101 319.391 64.101 L 408.96 64.102 C 428.847 64.102 443.281 78.536 443.281 98.423 C 443.281 118.31 428.847 132.745 408.96 132.745 L 392.654 132.745 L 392.654 197.323 C 392.654 217.21 378.22 231.644 358.333 231.644 Z " fill="rgb(254,254,254)"/></g></g></g></svg>