<?xml version="1.0" standalone="no"?><!-- Generator: Gravit.io --><svg xmlns="http://www.w3.org/2000/svg" xmlns:xlink="http://www.w3.org/1999/xlink" style="isolation:isolate" viewBox="0 0 884 180" width="884" height="180"><defs><clipPath id="_clipPath_2tkavD1urz9TPKGa6KxcwQNGop0J8JaM"><rect width="884" height="180"/></clipPath></defs><g clip-path="url(#_clipPath_2tkavD1urz9TPKGa6KxcwQNGop0J8JaM)"><g><g><path d=" M 523.497 15.446 C 525.418 16.107 527.084 16.977 528.495 18.058 L 526.604 21.165 C 525.493 20.294 524.12 19.596 522.484 19.071 C 520.848 18.546 519.264 18.283 517.733 18.283 C 513.981 18.283 510.956 19.424 508.66 21.705 C 506.363 23.987 505.215 26.988 505.215 30.711 C 505.215 34.433 506.363 37.435 508.66 39.717 C 510.956 41.998 513.981 43.139 517.733 43.139 C 519.294 43.139 520.877 42.883 522.484 42.373 C 524.09 41.863 525.463 41.173 526.604 40.302 L 528.495 43.454 C 527.084 44.505 525.426 45.353 523.519 45.998 C 521.613 46.643 519.729 46.966 517.868 46.966 C 512.795 46.966 508.69 45.473 505.553 42.486 C 502.416 39.499 500.848 35.574 500.848 30.711 C 500.848 25.848 502.416 21.923 505.553 18.936 C 508.69 15.949 512.78 14.455 517.823 14.455 C 519.684 14.455 521.576 14.786 523.497 15.446 Z " fill="rgb(254,254,254)"/><path d=" M 563.749 6.755 L 556.229 13.104 L 554.744 13.104 L 558.796 6.35 L 563.749 6.35 L 563.749 6.755 Z  M 568.567 18.552 L 551.952 18.552 L 551.952 29.224 L 567.352 29.224 L 567.352 32.781 L 551.952 32.781 L 551.952 42.868 L 568.567 42.868 L 568.567 46.47 L 547.629 46.47 L 547.629 14.95 L 568.567 14.95 L 568.567 18.552 Z " fill="rgb(254,254,254)"/><path d=" M 593.196 42.868 L 607.065 42.868 L 607.065 46.471 L 588.873 46.471 L 588.873 14.951 L 593.196 14.951 L 593.196 42.868 Z " fill="rgb(254,254,254)"/><path d=" M 648.94 34.853 C 648.94 38.485 647.792 41.413 645.495 43.634 C 643.199 45.855 640.19 46.966 636.467 46.966 C 632.745 46.966 629.735 45.855 627.439 43.634 C 625.143 41.413 623.994 38.485 623.994 34.853 L 623.994 14.951 L 628.317 14.951 L 628.317 34.853 C 628.317 37.345 629.06 39.349 630.546 40.865 C 632.032 42.38 634.005 43.139 636.467 43.139 C 638.929 43.139 640.902 42.38 642.388 40.865 C 643.875 39.349 644.617 37.345 644.617 34.853 L 644.617 14.951 L 648.94 14.951 L 648.94 34.853 Z " fill="rgb(254,254,254)"/><path d=" M 675.009 42.868 L 688.878 42.868 L 688.878 46.471 L 670.686 46.471 L 670.686 14.951 L 675.009 14.951 L 675.009 42.868 Z " fill="rgb(254,254,254)"/><path d=" M 712.606 34.313 L 724.133 34.313 L 718.37 19.363 L 712.606 34.313 Z  M 733.184 46.471 L 728.681 46.471 L 725.349 37.825 L 711.39 37.825 L 708.104 46.471 L 703.601 46.471 L 716.028 14.951 L 720.756 14.951 L 733.184 46.471 Z " fill="rgb(254,254,254)"/><path d=" M 779.469 18.553 L 779.469 42.868 L 785.143 42.868 C 788.775 42.868 791.702 41.758 793.923 39.536 C 796.145 37.315 797.255 34.373 797.255 30.711 C 797.255 27.049 796.145 24.107 793.923 21.885 C 791.702 19.664 788.775 18.553 785.143 18.553 L 779.469 18.553 Z  M 785.323 14.951 C 790.216 14.951 794.156 16.399 797.143 19.296 C 800.13 22.193 801.623 25.998 801.623 30.711 C 801.623 35.424 800.13 39.229 797.143 42.126 C 794.156 45.022 790.216 46.471 785.323 46.471 L 775.146 46.471 L 775.146 14.951 L 785.323 14.951 Z " fill="rgb(254,254,254)"/><path d=" M 842.597 18.553 L 825.981 18.553 L 825.981 29.225 L 841.381 29.225 L 841.381 32.782 L 825.981 32.782 L 825.981 42.868 L 842.597 42.868 L 842.597 46.471 L 821.659 46.471 L 821.659 14.951 L 842.597 14.951 L 842.597 18.553 Z " fill="rgb(254,254,254)"/><path d=" M 507.331 100.502 L 503.008 100.502 L 503.008 68.982 L 507.331 68.982 L 507.331 100.502 Z " fill="rgb(254,254,254)"/><path d=" M 554.565 100.502 L 551.323 100.502 L 533.807 76.682 L 533.807 100.502 L 529.484 100.502 L 529.484 68.982 L 532.816 68.982 L 550.287 92.712 L 550.287 68.982 L 554.565 68.982 L 554.565 100.502 Z " fill="rgb(254,254,254)"/><path d=" M 598.69 72.584 L 587.973 72.584 L 587.973 100.502 L 583.695 100.502 L 583.695 72.584 L 573.068 72.584 L 573.068 68.982 L 598.69 68.982 L 598.69 72.584 Z " fill="rgb(254,254,254)"/><path d=" M 638.132 72.584 L 621.516 72.584 L 621.516 83.256 L 636.916 83.256 L 636.916 86.813 L 621.516 86.813 L 621.516 96.9 L 638.132 96.9 L 638.132 100.502 L 617.194 100.502 L 617.194 68.982 L 638.132 68.982 L 638.132 72.584 Z " fill="rgb(254,254,254)"/><path d=" M 662.761 72.584 L 662.761 83.751 L 671.001 83.751 C 672.532 83.751 673.763 83.249 674.694 82.243 C 675.624 81.237 676.09 79.909 676.09 78.258 C 676.09 76.547 675.624 75.173 674.694 74.138 C 673.763 73.102 672.532 72.584 671.001 72.584 L 662.761 72.584 Z  M 671.136 68.982 C 673.958 68.982 676.217 69.83 677.913 71.526 C 679.609 73.222 680.457 75.451 680.457 78.213 C 680.457 80.614 679.744 82.618 678.319 84.224 C 676.892 85.83 674.979 86.768 672.577 87.039 L 672.082 87.039 L 680.727 100.097 L 680.727 100.502 L 676.27 100.502 L 667.714 87.128 L 662.761 87.128 L 662.761 100.502 L 658.438 100.502 L 658.438 68.982 L 671.136 68.982 Z " fill="rgb(254,254,254)"/><path d=" M 725.753 100.502 L 722.511 100.502 L 704.995 76.682 L 704.995 100.502 L 700.672 100.502 L 700.672 68.982 L 704.004 68.982 L 721.475 92.712 L 721.475 68.982 L 725.753 68.982 L 725.753 100.502 Z " fill="rgb(254,254,254)"/><path d=" M 768.842 72.584 L 752.226 72.584 L 752.226 83.256 L 767.626 83.256 L 767.626 86.813 L 752.226 86.813 L 752.226 96.9 L 768.842 96.9 L 768.842 100.502 L 747.904 100.502 L 747.904 68.982 L 768.842 68.982 L 768.842 72.584 Z " fill="rgb(254,254,254)"/><path d=" M 811.122 72.584 L 800.405 72.584 L 800.405 100.502 L 796.127 100.502 L 796.127 72.584 L 785.5 72.584 L 785.5 68.982 L 811.122 68.982 L 811.122 72.584 Z " fill="rgb(254,254,254)"/><path d=" M 507.331 126.616 L 507.331 150.931 L 513.005 150.931 C 516.637 150.931 519.564 149.821 521.785 147.599 C 524.007 145.378 525.117 142.436 525.117 138.774 C 525.117 135.112 524.007 132.17 521.785 129.948 C 519.564 127.727 516.637 126.616 513.005 126.616 L 507.331 126.616 Z  M 513.185 123.013 C 518.078 123.013 522.018 124.462 525.005 127.359 C 527.992 130.256 529.485 134.061 529.485 138.774 C 529.485 143.487 527.992 147.292 525.005 150.188 C 522.018 153.085 518.078 154.534 513.185 154.534 L 503.008 154.534 L 503.008 123.013 L 513.185 123.013 Z " fill="rgb(254,254,254)"/><path d=" M 553.753 142.376 L 565.28 142.376 L 559.517 127.426 L 553.753 142.376 Z  M 574.331 154.534 L 569.828 154.534 L 566.496 145.888 L 552.537 145.888 L 549.251 154.534 L 544.748 154.534 L 557.175 123.013 L 561.903 123.013 L 574.331 154.534 Z " fill="rgb(254,254,254)"/><path d=" M 612.064 125.13 L 610.308 128.507 C 607.396 127.006 604.514 126.255 601.662 126.255 C 599.591 126.255 597.947 126.676 596.732 127.516 C 595.516 128.357 594.908 129.558 594.908 131.119 C 594.908 132.35 595.306 133.318 596.102 134.023 C 596.897 134.729 598.105 135.337 599.726 135.847 L 604.995 137.513 C 607.756 138.413 609.85 139.494 611.276 140.755 C 612.702 142.016 613.415 143.802 613.415 146.113 C 613.415 148.905 612.379 151.089 610.308 152.665 C 608.236 154.241 605.445 155.029 601.933 155.029 C 597.399 155.029 593.302 153.888 589.64 151.607 L 591.621 148.275 C 594.803 150.286 598.24 151.292 601.933 151.292 C 604.124 151.292 605.85 150.849 607.111 149.963 C 608.372 149.078 609.002 147.854 609.002 146.294 C 609.002 144.913 608.552 143.847 607.651 143.096 C 606.751 142.346 605.475 141.731 603.824 141.25 L 598.555 139.629 C 593.212 138.008 590.54 135.186 590.54 131.164 C 590.54 128.492 591.546 126.383 593.557 124.837 C 595.568 123.291 598.255 122.518 601.617 122.518 C 605.189 122.518 608.672 123.389 612.064 125.13 Z " fill="rgb(254,254,254)"/><path d=" M 678.476 123.509 C 680.397 124.169 682.063 125.04 683.474 126.121 L 681.583 129.228 C 680.472 128.357 679.099 127.659 677.463 127.134 C 675.827 126.609 674.243 126.346 672.712 126.346 C 668.96 126.346 665.935 127.487 663.639 129.768 C 661.342 132.05 660.194 135.051 660.194 138.774 C 660.194 142.496 661.342 145.498 663.639 147.78 C 665.935 150.061 668.96 151.201 672.712 151.201 C 674.273 151.201 675.856 150.946 677.463 150.436 C 679.069 149.926 680.442 149.236 681.583 148.365 L 683.474 151.517 C 682.063 152.568 680.405 153.416 678.498 154.061 C 676.592 154.706 674.708 155.029 672.847 155.029 C 667.774 155.029 663.669 153.535 660.532 150.549 C 657.395 147.562 655.827 143.637 655.827 138.774 C 655.827 133.91 657.395 129.986 660.532 126.999 C 663.669 124.012 667.759 122.518 672.802 122.518 C 674.663 122.518 676.555 122.848 678.476 123.509 Z " fill="rgb(254,254,254)"/><path d=" M 707.563 129.948 C 705.221 132.35 704.051 135.291 704.051 138.774 C 704.051 142.256 705.221 145.198 707.563 147.599 C 709.904 150.001 712.756 151.201 716.118 151.201 C 719.48 151.201 722.332 150.001 724.674 147.599 C 727.015 145.198 728.186 142.256 728.186 138.774 C 728.186 135.291 727.015 132.35 724.674 129.948 C 722.332 127.547 719.48 126.346 716.118 126.346 C 712.756 126.346 709.904 127.547 707.563 129.948 Z  M 727.781 127.246 C 730.963 130.398 732.554 134.241 732.554 138.774 C 732.554 143.306 730.963 147.149 727.781 150.301 C 724.599 153.453 720.711 155.029 716.118 155.029 C 711.525 155.029 707.638 153.453 704.456 150.301 C 701.274 147.149 699.683 143.306 699.683 138.774 C 699.683 134.241 701.274 130.398 704.456 127.246 C 707.638 124.094 711.525 122.518 716.118 122.518 C 720.711 122.518 724.599 124.094 727.781 127.246 Z " fill="rgb(254,254,254)"/><path d=" M 756.82 154.534 L 752.497 154.534 L 752.497 123.013 L 756.82 123.013 L 756.82 154.534 Z " fill="rgb(254,254,254)"/><path d=" M 798.74 125.13 L 796.984 128.507 C 794.072 127.006 791.19 126.255 788.338 126.255 C 786.267 126.255 784.623 126.676 783.408 127.516 C 782.192 128.357 781.584 129.558 781.584 131.119 C 781.584 132.35 781.982 133.318 782.778 134.023 C 783.573 134.729 784.781 135.337 786.402 135.847 L 791.671 137.513 C 794.432 138.413 796.526 139.494 797.952 140.755 C 799.378 142.016 800.091 143.802 800.091 146.113 C 800.091 148.905 799.055 151.089 796.984 152.665 C 794.912 154.241 792.121 155.029 788.609 155.029 C 784.075 155.029 779.978 153.888 776.316 151.607 L 778.297 148.275 C 781.479 150.286 784.916 151.292 788.609 151.292 C 790.8 151.292 792.526 150.849 793.787 149.963 C 795.048 149.078 795.678 147.854 795.678 146.294 C 795.678 144.913 795.228 143.847 794.327 143.096 C 793.427 142.346 792.151 141.731 790.5 141.25 L 785.231 139.629 C 779.888 138.008 777.216 135.186 777.216 131.164 C 777.216 128.492 778.222 126.383 780.233 124.837 C 782.244 123.291 784.931 122.518 788.293 122.518 C 791.865 122.518 795.348 123.389 798.74 125.13 Z " fill="rgb(254,254,254)"/><path d=" M 824.315 142.376 L 835.842 142.376 L 830.079 127.426 L 824.315 142.376 Z  M 844.893 154.534 L 840.39 154.534 L 837.058 145.888 L 823.099 145.888 L 819.813 154.534 L 815.31 154.534 L 827.737 123.013 L 832.465 123.013 L 844.893 154.534 Z " fill="rgb(254,254,254)"/><path d=" M 882.625 125.13 L 880.869 128.507 C 877.957 127.006 875.075 126.255 872.223 126.255 C 870.152 126.255 868.508 126.676 867.293 127.516 C 866.077 128.357 865.469 129.558 865.469 131.119 C 865.469 132.35 865.867 133.318 866.663 134.023 C 867.458 134.729 868.666 135.337 870.287 135.847 L 875.556 137.513 C 878.317 138.413 880.411 139.494 881.837 140.755 C 883.263 142.016 883.976 143.802 883.976 146.113 C 883.976 148.905 882.94 151.089 880.869 152.665 C 878.797 154.241 876.006 155.029 872.494 155.029 C 867.96 155.029 863.863 153.888 860.201 151.607 L 862.182 148.275 C 865.364 150.286 868.801 151.292 872.494 151.292 C 874.685 151.292 876.411 150.849 877.672 149.963 C 878.933 149.078 879.563 147.854 879.563 146.294 C 879.563 144.913 879.113 143.847 878.212 143.096 C 877.312 142.346 876.036 141.731 874.385 141.25 L 869.116 139.629 C 863.773 138.008 861.101 135.186 861.101 131.164 C 861.101 128.492 862.107 126.383 864.118 124.837 C 866.129 123.291 868.816 122.518 872.178 122.518 C 875.75 122.518 879.233 123.389 882.625 125.13 Z " fill="rgb(254,254,254)"/></g><path d=" M 0.024 35.518 C 0.024 15.032 14.858 0.197 35.345 0.197 C 55.832 0.197 70.667 15.032 70.667 35.518 L 70.667 139.126 C 70.667 159.613 55.832 174.447 35.345 174.447 C 14.858 174.447 0.024 159.613 0.024 139.126 L 0.024 35.518 Z " fill="rgb(254,254,254)"/><linearGradient id="_lgradient_2" x1="-0.000001158582825677712" y1="0.500002166195959" x2="0.9999986759629995" y2="0.500002166195959" gradientTransform="matrix(175.697,0,0,176.08,84.154,3.724)" gradientUnits="userSpaceOnUse"><stop offset="0%" stop-opacity="1" style="stop-color:rgb(16,93,178)"/><stop offset="10%" stop-opacity="1" style="stop-color:rgb(8,111,189)"/><stop offset="20%" stop-opacity="1" style="stop-color:rgb(0,132,202)"/><stop offset="30.000000000000004%" stop-opacity="1" style="stop-color:rgb(0,152,206)"/><stop offset="40%" stop-opacity="1" style="stop-color:rgb(0,168,204)"/><stop offset="50%" stop-opacity="1" style="stop-color:rgb(0,184,204)"/><stop offset="60%" stop-opacity="1" style="stop-color:rgb(0,184,194)"/><stop offset="70%" stop-opacity="1" style="stop-color:rgb(5,184,186)"/><stop offset="80%" stop-opacity="1" style="stop-color:rgb(9,184,179)"/><stop offset="89.99999999999999%" stop-opacity="1" style="stop-color:rgb(14,185,174)"/><stop offset="100%" stop-opacity="1" style="stop-color:rgb(15,200,188)"/></linearGradient><path d=" M 130.751 14.102 C 87.855 36.998 71.649 90.321 94.543 133.21 L 94.543 133.21 C 117.431 176.093 170.755 192.312 213.651 169.415 L 213.651 169.415 C 239.446 155.651 255.543 130.855 259.325 103.952 L 259.325 103.952 C 260.409 99.131 259.851 93.921 257.342 89.225 L 257.342 89.225 C 251.784 78.81 238.825 74.876 228.411 80.435 L 228.411 80.435 C 221.849 83.938 217.871 90.364 217.195 97.248 L 217.195 97.248 C 215.458 111.415 207.101 124.545 193.558 131.772 L 193.558 131.772 C 171.467 143.565 143.978 135.208 132.186 113.117 L 132.186 113.117 C 120.394 91.026 128.753 63.544 150.846 51.753 L 150.846 51.753 C 164.375 44.532 179.933 44.889 192.653 51.324 L 192.653 51.324 C 192.884 51.437 193.13 51.539 193.351 51.658 L 193.351 51.658 C 193.438 51.706 193.525 51.748 193.606 51.783 L 193.606 51.783 C 199.511 54.604 206.635 54.695 212.853 51.376 L 212.853 51.376 C 223.243 45.831 227.17 32.9 221.623 22.509 L 221.623 22.509 C 219.447 18.433 216.14 15.365 212.301 13.46 L 212.301 13.46 L 212.312 13.422 C 199.9 7.081 186.09 3.725 172.081 3.724 L 172.081 3.724 C 158.11 3.724 143.943 7.06 130.751 14.102 Z " fill="url(#_lgradient_2)"/><path d=" M 298.376 24.421 C 294.875 17.862 289.427 13.014 283.13 10.192 C 274.337 6.251 263.884 6.267 254.729 11.153 C 244.695 16.51 238.673 26.429 237.79 36.972 C 236.628 47.876 230.293 58.009 219.907 63.556 C 210.323 68.667 199.398 68.749 190.161 64.727 C 180.612 58.443 168.017 57.437 157.222 63.196 C 141.509 71.585 135.564 91.124 143.954 106.844 C 152.341 122.558 171.885 128.492 187.598 120.107 C 197.718 114.706 203.761 104.649 204.543 93.978 C 205.91 83.366 212.191 73.552 222.347 68.13 C 232.737 62.584 244.709 62.955 254.412 68.053 L 254.509 67.939 C 262.77 72.409 272.817 73.211 281.967 69.511 C 283.025 69.084 284.074 68.61 285.103 68.061 C 300.817 59.675 306.763 40.134 298.376 24.421 Z " fill="rgb(254,254,254)"/><path d=" M 408.265 4.906 L 320.763 4.906 C 317.85 4.906 309.098 4.867 303.041 5.229 C 306.859 8.744 310.082 12.901 312.594 17.605 L 312.594 17.605 C 318.472 28.616 319.707 41.258 316.074 53.202 C 313.472 61.755 308.587 69.206 301.984 74.91 C 308.292 75.594 316.673 75.548 320.763 75.548 L 322.316 75.548 L 322.316 139.126 C 322.316 159.613 337.152 174.448 357.638 174.448 C 378.124 174.448 392.959 159.613 392.959 139.126 L 392.959 75.548 L 408.265 75.548 C 428.751 75.548 443.586 60.713 443.586 40.227 C 443.586 19.74 428.751 4.906 408.265 4.906 Z " fill="rgb(254,254,254)"/></g></g></svg>